<svg xmlns="http://www.w3.org/2000/svg" id="svg-logo-p4_quad_icons" viewBox="0 0 56 56" width="56" height="56" class="w-full h-full"><rect x="2" y="2" width="52" height="52" rx="4.48" fill="#FAF6F0" stroke="#1E1E1E" stroke-width="2"/><g><g><g><rect x="4.48" y="4.48" width="21.52" height="21.52" rx="2.24" fill="#D6C8FF" stroke="#1E1E1E" stroke-width="2"/><g><rect x="7.492800000000001" y="7.492800000000001" width="15.494399999999999" height="15.494399999999999" rx="6" fill="white" stroke="#1E1E1E" stroke-width="2"/><circle cx="15.24" cy="12.4928" r="3" fill="#1E1E1E"/><line x1="17.492800000000003" y1="15.24" x2="12.987200000000001" y2="15.24" stroke="#D6C8FF" stroke-width="1" stroke-dasharray="3 3"/><polyline points="22.492800000000003,7.987200000000001 12.6576,17.657600000000002 17.822400000000002,7.6576 7.987200000000001,7.987200000000001" fill="none" stroke="#BFE3FF" stroke-width="2" stroke-linecap="round" stroke-linejoin="round"/><rect x="11.3664" y="18.9872" width="7.747199999999999" height="6" rx="2" fill="#FFEAA0" stroke="#1E1E1E" stroke-width="2"/></g></g><g><rect x="28" y="4.48" width="21.52" height="21.52" rx="2.24" fill="#BFE3FF" stroke="#1E1E1E" stroke-width="2"/><circle cx="38.76" cy="15.24" r="7.316800000000001" fill="white" stroke="#1E1E1E" stroke-width="2"/><path d="M 38.76 15.24 L 38.76 10.9232 A 4.316800000000001 4.316800000000001 0 0 1 42.498458463056664 17.3984 Z" fill="#FF5252" stroke="#1E1E1E" stroke-width="1"/><circle cx="38.76" cy="15.24" r="3" fill="#1E1E1E"/><line x1="38.76" y1="15.24" x2="38.76" y2="10.936" stroke="#1E1E1E" stroke-width="2" stroke-linecap="round"/></g><g><rect x="4.48" y="28" width="21.52" height="21.52" rx="2.24" fill="#A9F3D8" stroke="#1E1E1E" stroke-width="2"/><g><rect x="7.492800000000001" y="31.8736" width="15.494399999999999" height="13.3424" rx="4" fill="white" stroke="#1E1E1E" stroke-width="2"/><g><path d="M 13.4928 27.8736 C 10.4928 23.8736, 16.492800000000003 23.8736, 13.4928 35.873599999999996" fill="none" stroke="#1E1E1E" stroke-width="2" stroke-linecap="round"/><path d="M 14.19168 27.8736 C 11.19168 23.8736, 17.191679999999998 23.8736, 14.19168 35.873599999999996" fill="none" stroke="#1E1E1E" stroke-width="2" stroke-linecap="round"/><path d="M 14.89056 27.8736 C 11.89056 23.8736, 17.89056 23.8736, 14.89056 35.873599999999996" fill="none" stroke="#1E1E1E" stroke-width="2" stroke-linecap="round"/><path d="M 15.58944 27.8736 C 12.58944 23.8736, 18.58944 23.8736, 15.58944 35.873599999999996" fill="none" stroke="#1E1E1E" stroke-width="2" stroke-linecap="round"/><path d="M 16.28832 27.8736 C 13.288319999999999 23.8736, 19.28832 23.8736, 16.28832 35.873599999999996" fill="none" stroke="#1E1E1E" stroke-width="2" stroke-linecap="round"/><path d="M 16.9872 27.8736 C 13.987200000000001 23.8736, 19.9872 23.8736, 16.9872 35.873599999999996" fill="none" stroke="#1E1E1E" stroke-width="2" stroke-linecap="round"/></g><line x1="7.492800000000001" y1="41.873599999999996" x2="22.9872" y2="41.873599999999996" stroke="#1E1E1E" stroke-width="2"/><line x1="11.3664" y1="41.873599999999996" x2="11.3664" y2="45.216" stroke="#1E1E1E" stroke-width="1"/><line x1="15.24" y1="41.873599999999996" x2="15.24" y2="45.216" stroke="#1E1E1E" stroke-width="1"/><line x1="19.113599999999998" y1="41.873599999999996" x2="19.113599999999998" y2="45.216" stroke="#1E1E1E" stroke-width="1"/><line x1="7.492800000000001" y1="46.32106666666666" x2="22.9872" y2="46.32106666666666" stroke="#1E1E1E" stroke-width="1" stroke-dasharray="2 2"/><rect x="13.3664" y="45.873599999999996" width="-0.1264000000000003" height="-1.5525333333333338" rx="2" fill="#D6C8FF" stroke="#1E1E1E" stroke-width="1"/><rect x="21.113599999999998" y="50.32106666666666" width="-0.1264000000000003" height="-1.5525333333333338" rx="2" fill="#FFEAA0" stroke="#1E1E1E" stroke-width="1"/></g></g><g><rect x="28" y="28" width="21.52" height="21.52" rx="2.24" fill="#FFEAA0" stroke="#1E1E1E" stroke-width="2"/><g transform="translate(38.76, 38.76) scale(0.85)"><rect x="-24" y="-8" width="48" height="15" rx="2" fill="white" stroke="#1E1E1E" stroke-width="2" transform="rotate(-30)"/><line x1="-18" y1="-2" x2="-18" y2="3" stroke="#1E1E1E" stroke-width="1.5" transform="rotate(-30)"/><line x1="-12" y1="-2" x2="-12" y2="3" stroke="#1E1E1E" stroke-width="1.5" transform="rotate(-30)"/><line x1="-6" y1="-2" x2="-6" y2="3" stroke="#1E1E1E" stroke-width="1.5" transform="rotate(-30)"/><line x1="0" y1="-2" x2="0" y2="3" stroke="#1E1E1E" stroke-width="1.5" transform="rotate(-30)"/><line x1="6" y1="-2" x2="6" y2="3" stroke="#1E1E1E" stroke-width="1.5" transform="rotate(-30)"/><line x1="12" y1="-2" x2="12" y2="3" stroke="#1E1E1E" stroke-width="1.5" transform="rotate(-30)"/><line x1="18" y1="-2" x2="18" y2="3" stroke="#1E1E1E" stroke-width="1.5" transform="rotate(-30)"/><g transform="rotate(45, 0, 0)"><path d="M -5 20 L -5 -12 L 0 -22 L 5 -12 L 5 20 Z" fill="#FFEAA0" stroke="#1E1E1E" stroke-width="2" stroke-linejoin="round"/><path d="M -2.5 -17 L 0 -22 L 2.5 -17 Z" fill="#1E1E1E"/><rect x="-5" y="20" width="10" height="6" rx="1" fill="#D6C8FF" stroke="#1E1E1E" stroke-width="2"/><rect x="-5" y="16" width="10" height="4" fill="white" stroke="#1E1E1E" stroke-width="2"/></g></g></g></g></g></svg>
