<svg xmlns="http://www.w3.org/2000/svg" id="svg-logo-p4_quad_icons" viewBox="0 0 56 56" width="56" height="56" class="w-full h-full"><rect x="2" y="2" width="52" height="52" rx="4.48" fill="#FAF6F0" stroke="#1E1E1E" stroke-width="2"/><g><g><g><rect x="4.48" y="4.48" width="21.52" height="21.52" rx="2.24" fill="#D6C8FF" stroke="#1E1E1E" stroke-width="2"/><g transform="translate(7.492800000000001, 7.492800000000001) scale(0.10193684210526315, 0.10193684210526315)"><rect x="0" y="0" width="152" height="152" rx="8" fill="white" stroke="#1E1E1E" stroke-width="19.619991738950848"/><circle cx="76" cy="6" r="3.5" fill="#1E1E1E"/><line x1="12" y1="76" x2="140" y2="76" stroke="#D6C8FF" stroke-width="29.429987608426273" stroke-dasharray="4 4"/><path d="M 15 120 Q 50 30, 80 90 T 135 40" fill="none" stroke="#90CFFF" stroke-width="49.049979347377125" stroke-linecap="round" stroke-linejoin="round"/><rect x="38" y="144" width="76" height="6" rx="2" fill="#FFEAA0" stroke="#1E1E1E" stroke-width="34.33498554316399"/></g></g><g><rect x="28" y="4.48" width="21.52" height="21.52" rx="2.24" fill="#BFE3FF" stroke="#1E1E1E" stroke-width="2"/><g><circle cx="38.76" cy="15.24" r="7.531999999999999" fill="white" stroke="#1E1E1E" stroke-width="2"/><path d="M 38.76 15.24 L 38.76 10.708000000000002 A 4.531999999999999 4.531999999999999 0 0 1 42.684827129951074 17.506 Z" fill="#FF5252" stroke="#1E1E1E" stroke-width="1.5"/><line x1="38.76" y1="9.708000000000002" x2="38.76" y2="13.708000000000002" stroke="#1E1E1E" stroke-width="2" stroke-linecap="round"/><line x1="41.525999999999996" y1="10.449147466264487" x2="39.525999999999996" y2="13.913249081402242" stroke="#1E1E1E" stroke-width="1" stroke-linecap="round"/><line x1="43.550852533735515" y1="12.474" x2="40.08675091859776" y2="14.474" stroke="#1E1E1E" stroke-width="1" stroke-linecap="round"/><line x1="44.291999999999994" y1="15.24" x2="40.291999999999994" y2="15.24" stroke="#1E1E1E" stroke-width="2" stroke-linecap="round"/><line x1="43.550852533735515" y1="18.006" x2="40.08675091859776" y2="16.006" stroke="#1E1E1E" stroke-width="1" stroke-linecap="round"/><line x1="41.525999999999996" y1="20.030852533735512" x2="39.525999999999996" y2="16.56675091859776" stroke="#1E1E1E" stroke-width="1" stroke-linecap="round"/><line x1="38.76" y1="20.772" x2="38.76" y2="16.772" stroke="#1E1E1E" stroke-width="2" stroke-linecap="round"/><line x1="35.994" y1="20.030852533735516" x2="37.994" y2="16.56675091859776" stroke="#1E1E1E" stroke-width="1" stroke-linecap="round"/><line x1="33.96914746626448" y1="18.006" x2="37.43324908140224" y2="16.006" stroke="#1E1E1E" stroke-width="1" stroke-linecap="round"/><line x1="33.228" y1="15.24" x2="37.228" y2="15.24" stroke="#1E1E1E" stroke-width="2" stroke-linecap="round"/><line x1="33.96914746626449" y1="12.474" x2="37.43324908140224" y2="14.474" stroke="#1E1E1E" stroke-width="1" stroke-linecap="round"/><line x1="35.99399999999999" y1="10.449147466264488" x2="37.994" y2="13.913249081402242" stroke="#1E1E1E" stroke-width="1" stroke-linecap="round"/><line x1="40.19178695750714" y1="9.896498328968875" x2="39.6741488673021" y2="11.828349981547012" stroke="#1E1E1E" stroke-width="0.5"/><line x1="42.671714713523976" y1="11.32828528647602" x2="41.25750115115088" y2="12.742498848849115" stroke="#1E1E1E" stroke-width="0.5"/><line x1="44.103501671031125" y1="13.808213042492856" x2="42.171650018452986" y2="14.325851132697897" stroke="#1E1E1E" stroke-width="0.5"/><line x1="44.103501671031125" y1="16.671786957507145" x2="42.171650018452986" y2="16.154148867302105" stroke="#1E1E1E" stroke-width="0.5"/><line x1="42.671714713523976" y1="19.15171471352398" x2="41.25750115115088" y2="17.737501151150884" stroke="#1E1E1E" stroke-width="0.5"/><line x1="40.19178695750714" y1="20.583501671031126" x2="39.6741488673021" y2="18.65165001845299" stroke="#1E1E1E" stroke-width="0.5"/><line x1="37.328213042492855" y1="20.583501671031126" x2="37.845851132697895" y2="18.65165001845299" stroke="#1E1E1E" stroke-width="0.5"/><line x1="34.84828528647602" y1="19.15171471352398" x2="36.26249884884911" y2="17.737501151150887" stroke="#1E1E1E" stroke-width="0.5"/><line x1="33.41649832896887" y1="16.671786957507145" x2="35.34834998154701" y2="16.154148867302105" stroke="#1E1E1E" stroke-width="0.5"/><line x1="33.41649832896887" y1="13.808213042492858" x2="35.34834998154701" y2="14.325851132697899" stroke="#1E1E1E" stroke-width="0.5"/><line x1="34.84828528647601" y1="11.32828528647602" x2="36.26249884884911" y2="12.742498848849115" stroke="#1E1E1E" stroke-width="0.5"/><line x1="37.328213042492855" y1="9.896498328968875" x2="37.845851132697895" y2="11.828349981547012" stroke="#1E1E1E" stroke-width="0.5"/><line x1="38.76" y1="15.24" x2="38.76" y2="22.708000000000002" stroke="#1E1E1E" stroke-width="2" stroke-linecap="round"/><circle cx="38.76" cy="15.24" r="4" fill="#1E1E1E"/></g></g><g><rect x="4.48" y="28" width="21.52" height="21.52" rx="2.24" fill="#A9F3D8" stroke="#1E1E1E" stroke-width="2"/><g transform="translate(7.492800000000001, 32.304) scale(0.10193684210526315, 0.09932307692307692)"><rect x="0" y="0" width="152" height="130" rx="6" fill="white" stroke="#1E1E1E" stroke-width="19.619991738950848"/><g><path d="M 8 -7 Q 5 -13, 12 -11 L 10 -2" fill="none" stroke="#1E1E1E" stroke-width="34.33498554316399" stroke-linecap="round"/><path d="M 36 -7 Q 33 -13, 40 -11 L 38 -2" fill="none" stroke="#1E1E1E" stroke-width="34.33498554316399" stroke-linecap="round"/><path d="M 64 -7 Q 61 -13, 68 -11 L 66 -2" fill="none" stroke="#1E1E1E" stroke-width="34.33498554316399" stroke-linecap="round"/><path d="M 92 -7 Q 89 -13, 96 -11 L 94 -2" fill="none" stroke="#1E1E1E" stroke-width="34.33498554316399" stroke-linecap="round"/><path d="M 120 -7 Q 117 -13, 124 -11 L 122 -2" fill="none" stroke="#1E1E1E" stroke-width="34.33498554316399" stroke-linecap="round"/><path d="M 148 -7 Q 145 -13, 152 -11 L 150 -2" fill="none" stroke="#1E1E1E" stroke-width="34.33498554316399" stroke-linecap="round"/></g><line x1="0" y1="20" x2="152" y2="20" stroke="#FF5252" stroke-width="24.524989673688562"/><line x1="38" y1="20" x2="38" y2="130" stroke="#1E1E1E" stroke-width="24.524989673688562"/><line x1="76" y1="20" x2="76" y2="130" stroke="#1E1E1E" stroke-width="24.524989673688562"/><line x1="114" y1="20" x2="114" y2="130" stroke="#1E1E1E" stroke-width="24.524989673688562"/><line x1="0" y1="70" x2="152" y2="70" stroke="#1E1E1E" stroke-width="14.714993804213137" stroke-dasharray="3 3"/><rect x="42" y="27" width="30" height="36" rx="3" fill="#D6C8FF" stroke="#1E1E1E" stroke-width="14.714993804213137"/><rect x="118" y="77" width="30" height="46" rx="3" fill="#FFEAA0" stroke="#1E1E1E" stroke-width="14.714993804213137"/></g></g><g><rect x="28" y="28" width="21.52" height="21.52" rx="2.24" fill="#FFEAA0" stroke="#1E1E1E" stroke-width="2"/><g transform="translate(38.76, 38.76) scale(0.95)"><g transform="rotate(-30)"><rect x="-38" y="-10" width="76" height="20" rx="3" fill="#FFFFFF" stroke="#1E1E1E" stroke-width="2"/><line x1="-28" y1="-10" x2="-28" y2="-4" stroke="#1E1E1E" stroke-width="1"/><line x1="-20" y1="-10" x2="-20" y2="-6" stroke="#1E1E1E" stroke-width="1"/><line x1="-12" y1="-10" x2="-12" y2="-4" stroke="#1E1E1E" stroke-width="1"/><line x1="-4" y1="-10" x2="-4" y2="-6" stroke="#1E1E1E" stroke-width="1"/><line x1="4" y1="-10" x2="4" y2="-4" stroke="#1E1E1E" stroke-width="1"/><line x1="12" y1="-10" x2="12" y2="-6" stroke="#1E1E1E" stroke-width="1"/><line x1="20" y1="-10" x2="20" y2="-4" stroke="#1E1E1E" stroke-width="1"/><line x1="28" y1="-10" x2="28" y2="-6" stroke="#1E1E1E" stroke-width="1"/></g><g transform="rotate(35, 0, 0)"><path d="M -9 35 L -9 -20 L 0 -36 L 9 -20 L 9 35 Z" fill="#A9F3D8" stroke="#1E1E1E" stroke-width="2" stroke-linejoin="round"/><path d="M -9 -20 L 0 -36 L 9 -20 Q 0 -15, -9 -20 Z" fill="#FAF6F0" stroke="#1E1E1E" stroke-width="1"/><path d="M -4.5 -28 L 0 -36 L 4.5 -28 Z" fill="#1E1E1E"/><path d="M -9 35 C -9 43, 9 43, 9 35 Z" fill="#D6C8FF" stroke="#1E1E1E" stroke-width="2"/><rect x="-9" y="27" width="18" height="6" fill="#FFFFFF" stroke="#1E1E1E" stroke-width="2"/></g></g></g></g></g></svg>
